G04 #@! TF.FileFunction,Copper,L1,Top,Signal*
%FSLAX46Y46*%
G04 Gerber Fmt 4.6, Leading zero omitted, Abs format (unit mm)*
G04 Created by KiCad (PCBNEW (2015-03-04 BZR 5478)-product) date Mon 09 Mar 2015 22:59:52 GMT*
%MOMM*%
G01*
G04 APERTURE LIST*
%ADD10C,0.100000*%
%ADD11R,1.600000X2.000000*%
%ADD12R,0.497840X2.199640*%
%ADD13R,2.540000X1.270000*%
%ADD14R,1.000000X1.500000*%
%ADD15R,2.750000X1.400000*%
%ADD16C,0.500000*%
%ADD17C,1.000000*%
G04 APERTURE END LIST*
D10*
D11*
X9652000Y9066000D03*
X9652000Y5666000D03*
D12*
X12319000Y4213860D03*
X13581380Y4213860D03*
X14848840Y4213860D03*
X16118840Y4213860D03*
X16129000Y10518140D03*
X14859000Y10518140D03*
X13589000Y10518140D03*
X12319000Y10518140D03*
D13*
X30417000Y9906000D03*
X35877000Y9906000D03*
X30417000Y7366000D03*
X35877000Y7366000D03*
X30417000Y4826000D03*
X35877000Y4826000D03*
D11*
X7112000Y5666000D03*
X7112000Y9066000D03*
D14*
X1194000Y4916000D03*
X1194000Y9816000D03*
X2794000Y4916000D03*
X2794000Y9816000D03*
X4394000Y4916000D03*
X4394000Y9816000D03*
D15*
X26616000Y3207000D03*
X19866000Y3207000D03*
X26616000Y7207000D03*
X19866000Y7207000D03*
D16*
X12319000Y10518140D02*
X12319000Y12827000D01*
X12319000Y12827000D02*
X11118618Y12827000D01*
D17*
X11118618Y12827000D02*
X7256709Y12827000D01*
X9652000Y9066000D02*
X9652000Y12827000D01*
X9652000Y12827000D02*
X7256709Y12827000D01*
X7256709Y12827000D02*
X2455000Y12827000D01*
X2455000Y12827000D02*
X1194000Y11566000D01*
X1194000Y11566000D02*
X1194000Y9816000D01*
X1194000Y9816000D02*
X1194000Y7786002D01*
X1194000Y7786002D02*
X2794000Y6186002D01*
X2794000Y6186002D02*
X2794000Y4916000D01*
X34417000Y12827000D02*
X11118618Y12827000D01*
X35877000Y11367000D02*
X34417000Y12827000D01*
X35877000Y9906000D02*
X35877000Y11367000D01*
X33445029Y1314029D02*
X26606500Y1314029D01*
D16*
X16118840Y1314029D02*
X18204102Y1314029D01*
D17*
X18204102Y1314029D02*
X6559971Y1314029D01*
X19908004Y1314029D02*
X18204102Y1314029D01*
X24349544Y1314029D02*
X18204102Y1314029D01*
X26606500Y1314029D02*
X24349544Y1314029D01*
D16*
X16118840Y4213860D02*
X16118840Y1314029D01*
D17*
X9652000Y5666000D02*
X9652000Y1314029D01*
X9652000Y1314029D02*
X6559971Y1314029D01*
X6559971Y1314029D02*
X4394000Y3480000D01*
X4394000Y3480000D02*
X4394000Y4916000D01*
D16*
X16129000Y4203700D02*
X16118840Y4213860D01*
D17*
X26606500Y1497500D02*
X26606500Y1314029D01*
X26616000Y1507000D02*
X26606500Y1497500D01*
X26616000Y3207000D02*
X26616000Y1507000D01*
X19866000Y1356033D02*
X19908004Y1314029D01*
X19866000Y3207000D02*
X19866000Y1356033D01*
X34000029Y1314029D02*
X33445029Y1314029D01*
X35877000Y3191000D02*
X34000029Y1314029D01*
X35877000Y4826000D02*
X35877000Y3191000D01*
D16*
X30163000Y5080000D02*
X30417000Y4826000D01*
X30367000Y4876000D02*
X30417000Y4826000D01*
D17*
X26616000Y7207000D02*
X19866000Y7207000D01*
D16*
X12319000Y5813680D02*
X12319000Y4213860D01*
X13236320Y6731000D02*
X12319000Y5813680D01*
X17515000Y6731000D02*
X13236320Y6731000D01*
X17991000Y7207000D02*
X17515000Y6731000D01*
X19866000Y7207000D02*
X17991000Y7207000D01*
D17*
X28997000Y4826000D02*
X26616000Y7207000D01*
X30417000Y4826000D02*
X28997000Y4826000D01*
D16*
X7112000Y5666000D02*
X7112000Y6477000D01*
X11303000Y6985002D02*
X11303000Y2711118D01*
X7112000Y6477000D02*
X7951001Y7316001D01*
X7951001Y7316001D02*
X10972001Y7316001D01*
X10972001Y7316001D02*
X11303000Y6985002D01*
X13581380Y2786380D02*
X13581380Y4213860D01*
X11303000Y2711118D02*
X11550079Y2464039D01*
X11550079Y2464039D02*
X13259039Y2464039D01*
X13259039Y2464039D02*
X13581380Y2786380D01*
X16877920Y10518140D02*
X16129000Y10518140D01*
X18036770Y11676990D02*
X16877920Y10518140D01*
X31721012Y11676990D02*
X18036770Y11676990D01*
X32337001Y10270999D02*
X32337001Y11061001D01*
X35242000Y7366000D02*
X32337001Y10270999D01*
X32337001Y11061001D02*
X31721012Y11676990D01*
X35877000Y7366000D02*
X35242000Y7366000D01*
X14859000Y8918320D02*
X14859000Y10518140D01*
X15009001Y8768319D02*
X14859000Y8918320D01*
X16897921Y8768319D02*
X15009001Y8768319D01*
X18035602Y9906000D02*
X16897921Y8768319D01*
X30417000Y9906000D02*
X18035602Y9906000D01*
X13589000Y8918320D02*
X13589000Y10518140D01*
X13871320Y8636000D02*
X13589000Y8918320D01*
X29782000Y7366000D02*
X28512000Y8636000D01*
X30417000Y7366000D02*
X29782000Y7366000D01*
X18038408Y8636000D02*
X28512000Y8636000D01*
X17270717Y7868309D02*
X18038408Y8636000D01*
X14636205Y7868309D02*
X17270717Y7868309D01*
X13871320Y8633194D02*
X14636205Y7868309D01*
X13871320Y8636000D02*
X13871320Y8633194D01*
X2794000Y9816000D02*
X2794000Y8566000D01*
X2794000Y8566000D02*
X3794000Y7566000D01*
X3794000Y7566000D02*
X5812000Y7566000D01*
X5812000Y7566000D02*
X7112000Y8866000D01*
X7112000Y8866000D02*
X7112000Y9066000D01*
M02*
